***** Million.Dollar.Baby.2004.DVDRiP.XviD.SWESUB-Zen_Bud ******

Format                           : AVI
File size                        : 701 MiB
Duration                         : 2h 7mn
Overall bit rate                 : 771 Kbps
Writing application              : VirtualDubMod 1.5.10.2 (build 2542/release)
Writing library                  : VirtualDubMod build 2542/release

Video

Codec ID/Hint                    : XviD
Duration                         : 2h 7mn
Bit rate                         : 646 Kbps
Width                            : 608 pixels
Height                           : 256 pixels
Display aspect ratio             : 2.35:1
Stream size                      : 587 MiB (84%)
Writing library                  : XviD 1.2.1 (UTC 2008-12-04)

Audio

Format                           : MPEG Audio
Codec ID/Hint                    : MP3
Duration                         : 2h 7mn
Bit rate                         : 112 Kbps
Nominal bit rate                 : 128 Kbps
Channel(s)                       : 2 channels
Sampling rate                    : 48.0 KHz
Stream size                      : 102 MiB (15%)
Writing library                  : LAME3.97 


A hardened trainer/manager works with a determined woman in her attempt to establish herself as a boxer. 